<mxfile host="Electron" modified="2024-07-18T19:13:27.219Z" agent="Mozilla/5.0 (Windows NT 10.0; Win64; x64) AppleWebKit/537.36 (KHTML, like Gecko) draw.io/24.2.5 Chrome/120.0.6099.109 Electron/28.1.0 Safari/537.36" etag="G1-5HqVnX2q1NFW27aPL" version="24.2.5" type="device">
  <diagram name="Page-1" id="naBCkwGBa28jb_yPJS2W">
    <mxGraphModel dx="1232" dy="1205" grid="1" gridSize="10" guides="1" tooltips="1" connect="1" arrows="1" fold="1" page="1" pageScale="1" pageWidth="850" pageHeight="1100" math="0" shadow="0">
      <root>
        <mxCell id="0" />
        <mxCell id="1" parent="0" />
        <mxCell id="bFCBhZwlvp53kN9oO9aB-6" value="Host / Container" style="rounded=0;whiteSpace=wrap;html=1;dashed=1;fontStyle=1;fontSize=14;verticalAlign=top;" vertex="1" parent="1">
          <mxGeometry x="160" y="490" width="520" height="215" as="geometry" />
        </mxCell>
        <mxCell id="bFCBhZwlvp53kN9oO9aB-1" value="&lt;div&gt;&lt;h1 style=&quot;margin-top: 0px;&quot;&gt;Sidecar&lt;/h1&gt;- Platform abstraction&lt;/div&gt;&lt;div&gt;- Proxy to remote services&lt;/div&gt;&lt;div&gt;- Loggin&lt;/div&gt;&lt;div&gt;- Configuration&lt;/div&gt;" style="rounded=0;whiteSpace=wrap;html=1;align=left;spacingLeft=5;" vertex="1" parent="1">
          <mxGeometry x="490" y="525" width="150" height="150" as="geometry" />
        </mxCell>
        <mxCell id="bFCBhZwlvp53kN9oO9aB-5" style="edgeStyle=orthogonalEdgeStyle;rounded=0;orthogonalLoop=1;jettySize=auto;html=1;entryX=0;entryY=0.5;entryDx=0;entryDy=0;startArrow=classic;startFill=1;" edge="1" parent="1" source="bFCBhZwlvp53kN9oO9aB-4" target="bFCBhZwlvp53kN9oO9aB-1">
          <mxGeometry relative="1" as="geometry" />
        </mxCell>
        <mxCell id="bFCBhZwlvp53kN9oO9aB-4" value="&lt;h1 style=&quot;margin-top: 0px;&quot;&gt;Application&lt;/h1&gt;Core functionality" style="rounded=0;whiteSpace=wrap;html=1;align=center;spacingLeft=5;" vertex="1" parent="1">
          <mxGeometry x="200" y="525" width="150" height="150" as="geometry" />
        </mxCell>
      </root>
    </mxGraphModel>
  </diagram>
</mxfile>
